<svg width="773" height="934" viewBox="0 0 773 934" fill="none" xmlns="http://www.w3.org/2000/svg">
<path d="M772.882 519.929C772.765 519.403 772.648 518.876 772.413 518.349L703.317 353.212V160.397C703.317 122.829 672.648 92.2823 634.927 92.2823H384.575C367.066 38.7387 316.479 0 257.019 0C197.56 0 146.326 39.2653 129.052 93.2771C94.681 94.2719 67.0664 122.36 67.0664 156.827V417.172L1.08527 679.858C-2.02871 692.205 1.67281 705.547 10.721 714.617L11.1323 715.027C18.0653 721.932 27.2897 725.736 37.1604 725.736H73.1181C79.2873 749.669 89.3931 770.326 103.964 788.408L103.847 788.525L108.664 794.084C108.664 794.084 108.841 794.318 108.958 794.435C145.68 836.744 200.498 856.991 258.606 878.408C296.796 892.511 336.338 907.14 370.474 928.558L374.058 930.84C377.407 932.947 381.285 934 385.163 934C389.04 934 392.918 932.947 396.267 930.84L399.851 928.558C433.987 907.082 473.529 892.511 511.719 878.408C605.903 843.59 703.317 807.66 703.317 666.691V599.338C742.095 595.066 772.412 562.472 773 522.914C773 522.797 773 522.68 773 522.563V521.919C773 521.217 773 520.514 772.824 519.812L772.882 519.929ZM703.317 581.548C700.438 581.958 697.501 582.192 694.504 582.192C691.508 582.192 688.453 581.958 685.515 581.548C659.193 577.628 638.394 556.854 634.457 530.638H754.61C750.673 556.912 729.757 577.745 703.317 581.548ZM685.515 656.919C665.303 644.396 641.86 637.491 617.889 637.491C560.133 637.491 509.839 676.171 494.681 730.768C484.692 727.901 474.117 726.848 463.6 727.491L441.097 693.902C430.697 678.336 414.011 668.096 395.327 665.755L391.273 665.229V649.663H400.439H400.615C426.761 649.663 451.379 639.539 469.945 621.106C476.408 614.669 481.813 607.53 486.161 599.864C487.395 599.981 488.629 599.981 489.863 599.981C532.812 599.981 567.712 565.573 568.359 523.031C568.359 522.914 568.359 522.797 568.359 522.68V521.977C568.359 521.275 568.359 520.631 568.182 519.929C568.182 519.929 568.182 519.812 568.124 519.754C568.006 519.286 567.889 518.817 567.712 518.349L503.2 364.214H681.167L616.655 518.349C616.478 518.759 616.361 519.227 616.243 519.695C616.243 519.754 616.185 519.812 616.185 519.929C616.126 520.222 616.126 520.573 616.067 520.866C616.067 521.158 615.95 521.451 615.95 521.743C615.95 561.828 646.443 595.007 685.515 599.455V656.919ZM131.696 582.133L152.143 635.385L116.185 630.879L131.755 582.075L131.696 582.133ZM172.178 637.901L140.392 554.923L175.527 444.793C186.749 490.904 194.387 555.098 187.865 639.832L172.237 637.901H172.178ZM373.412 133.713V138.687H266.185C266.831 132.016 269.651 125.754 274.469 120.897C279.992 115.338 287.395 112.178 295.21 112.061L371.179 111.008C372.648 118.323 373.47 125.93 373.47 133.654L373.412 133.713ZM265.95 156.476H373.47V173.212L265.95 195.098V156.476ZM265.891 213.238L374.469 191.119L390.568 221.84H382.284C377.407 221.957 373.47 225.937 373.47 230.794C373.47 256.483 352.495 277.374 326.702 277.374H304.493C296.267 277.374 289.628 283.986 289.628 292.179V325.475C289.628 344.025 294.211 362.4 302.789 378.843C277.583 360.937 243.094 347.419 193.095 340.807C236.22 318.453 265.186 270.351 265.891 213.18V213.238ZM498.676 346.366V310.67C498.676 307.101 500.439 303.882 503.318 302.302C511.543 297.621 541.097 290.072 583.282 281.645V346.366H498.676ZM480.815 530.638H549.91C545.738 558.434 522.53 580.144 493.917 582.075C492.565 582.133 491.214 582.192 489.804 582.192C484.927 582.192 480.11 581.607 475.585 580.495C451.79 574.819 433.4 555.098 429.757 530.638H480.815ZM480.815 512.849H433.576L480.815 399.968V512.849ZM498.793 512.849V399.734L546.091 512.849H498.793ZM590.392 262.218C550.439 269.883 507.842 279.363 494.563 286.853C486.102 291.652 480.815 300.781 480.815 310.729V353.739L411.955 518.349C411.955 518.349 411.896 518.642 411.837 518.817C411.484 519.812 411.249 520.807 411.249 521.802C411.249 557.088 434.81 586.99 467.125 596.704C464.246 600.918 460.956 604.897 457.254 608.583C442.095 623.681 421.943 631.932 400.556 631.932H391.273V566.568L455.903 291.359L456.079 290.482C456.843 284.396 460.427 264.207 474.998 258.297C486.514 253.557 538.276 246.886 610.074 240.859C613.306 240.625 616.126 243.024 616.478 246.184L617.007 251.801C617.36 254.844 615.303 257.653 612.189 258.18C605.139 259.467 597.853 260.813 590.392 262.276V262.218ZM170.063 373.108C180.11 381.828 191.626 393.882 202.906 410.267C251.085 480.488 258.371 576.633 255.374 648.2L205.55 641.997C216.537 501.73 189.981 415.826 170.063 373.05V373.108ZM216.773 398.973C208.782 387.504 200.733 378.024 192.977 370.183C256.02 395.638 317.066 452.4 318.535 656.1L273.118 650.424C276.408 575.345 268.77 473.7 216.773 398.915V398.973ZM336.396 658.323C335.398 464.572 280.227 395.17 220.65 363.453C310.016 382.764 332.342 430.105 358.841 487.218C368.418 512.205 373.412 538.83 373.412 565.573V662.946L336.396 658.323ZM685.515 512.849H638.276L685.515 399.968V512.849ZM703.435 512.849V399.675L750.791 512.849H703.435ZM634.927 110.072C662.836 110.072 685.515 132.659 685.515 160.397V346.424H601.085V278.251C605.726 277.374 610.544 276.496 615.421 275.618C627.524 273.394 636.044 262.159 634.81 249.929L634.222 244.37C632.93 231.554 621.355 222.074 608.605 223.128C564.128 226.814 486.69 234.188 468.182 241.795C452.495 248.232 441.39 265.377 438.394 287.731L385.398 513.551V513.726C382.871 502.608 379.64 491.607 375.527 480.956C375.468 480.781 375.409 480.605 375.351 480.488C371.825 471.243 367.654 462.231 363.012 453.512L319.005 371.704C311.426 357.543 307.372 341.626 307.372 325.592V295.221H326.584C359.252 295.221 386.279 270.995 390.627 239.688H395.562C400.791 239.571 405.492 236.938 408.194 232.432C410.897 227.985 411.014 222.543 408.606 217.978L391.273 184.916V133.771C391.273 125.696 390.509 117.796 389.099 110.072H634.927ZM84.869 156.827C84.869 133.654 102.202 114.519 124.646 111.418C123.412 118.674 122.766 126.106 122.766 133.713H140.627C140.627 69.753 192.859 17.7894 257.019 17.7894C306.96 17.7894 349.499 49.3304 366.009 93.3941L294.975 94.3304C282.401 94.506 270.65 99.5385 261.778 108.433C252.965 117.386 248.089 129.148 248.089 141.671V211.015C248.089 279.246 203.083 333.141 143.388 336.418C143.388 336.418 143.33 336.418 143.271 336.418C143.212 336.418 143.153 336.418 143.095 336.418C112.19 336.945 94.8572 349.76 84.869 364.155V345.254C84.869 306.398 100.321 265.377 125.116 238.225C135.398 227.048 140.568 212.419 140.568 194.688V133.713H122.707V194.688C122.707 207.855 119.064 218.446 111.896 226.229C101.144 237.991 91.9783 252.035 84.8102 267.367V156.769L84.869 156.827ZM23.7644 702.446L23.4119 702.095C18.7116 697.413 16.8314 690.567 18.4178 684.188L84.634 420.449L87.8067 407.926C88.1005 406.756 88.3942 405.176 88.8055 403.304C91.7432 388.089 97.8537 357.075 139.511 354.441C144.446 361.873 155.903 381.067 166.714 413.778L92.6833 645.918L393.153 683.31C406.667 685.007 418.77 692.439 426.291 703.733L484.575 790.807C485.926 792.797 485.632 795.43 483.987 797.127L482.225 798.883C480.286 800.814 477.113 800.814 475.174 798.883L394.739 718.772C387.806 711.867 378.523 708.005 368.711 708.005H37.1604C32.1076 708.005 27.3485 706.074 23.7644 702.504V702.446ZM394.798 744.052L404.493 753.707C400.967 757.218 397.736 760.905 394.798 764.884V744.11V744.052ZM254.904 725.736V858.161C237.807 851.841 221.062 845.463 205.198 838.499V725.794H254.904V725.736ZM272.765 725.736H318.594V882.563C303.435 876.185 288.042 870.391 272.765 864.715V725.677V725.736ZM91.567 725.736H158.899L115.891 774.832C104.845 760.437 96.8549 744.227 91.567 725.736ZM176.702 732.465L177.231 731.763C178.641 729.832 179.875 727.784 181.05 725.736H187.395V830.131C164.599 818.837 144.152 805.612 127.642 788.467L176.702 732.465ZM336.455 890.404V725.736H368.594C371.531 725.736 374.41 726.496 376.996 727.784V911.822C363.952 903.863 350.38 896.783 336.455 890.404ZM505.609 861.848C468.124 875.716 429.463 890.053 394.857 911.003V819.013C394.857 799 402.965 780.157 417.125 766.288L462.483 811.464C466.949 815.911 472.765 818.135 478.641 818.135C484.516 818.135 490.333 815.911 494.798 811.464L496.561 809.709C504.258 802.101 505.491 789.988 499.44 780.976L475.585 745.281C483.224 745.924 490.627 747.68 497.736 750.606C498.852 751.074 500.027 751.308 501.144 751.308C502.612 751.308 504.081 750.957 505.374 750.255C507.724 748.967 509.428 746.744 509.898 744.11C519.828 692.615 565.245 655.281 617.947 655.281C642.33 655.281 666.126 663.473 685.339 678.336C680.462 797.244 599.263 827.264 505.668 861.848H505.609Z" fill="#42F9C8" fill-opacity="0.05"/>
</svg>
