<svg width="108" height="41" viewBox="0 0 108 41" fill="none" xmlns="http://www.w3.org/2000/svg">
<path d="M33.3824 19.9393H32.4474C32.3803 19.9393 32.3216 19.8974 32.2964 19.8345L30.8625 15.9395C30.8625 15.9395 30.8625 15.9311 30.8625 15.9269C30.8625 15.9143 30.8625 15.9059 30.8583 15.8933C30.8583 15.8892 30.8583 15.885 30.8541 15.885C30.8541 15.8766 30.8458 15.8682 30.8416 15.8598C30.8374 15.8514 30.829 15.843 30.8248 15.8346C30.8206 15.8263 30.808 15.8221 30.7996 15.8179C30.7913 15.8137 30.7829 15.8053 30.7745 15.8011C30.7661 15.8011 30.7619 15.8011 30.7535 15.7927C30.7409 15.7927 30.7284 15.7843 30.7116 15.7843C30.7074 15.7843 30.7032 15.7843 30.6948 15.7843C30.6864 15.7843 30.6739 15.7843 30.6613 15.7885L27.8941 16.6858C27.8354 16.7067 27.7767 16.6858 27.7432 16.6355C27.718 16.6019 27.6928 16.5726 27.6677 16.5432C27.5461 16.4174 27.3868 16.3462 27.2191 16.321C27.24 15.9437 27.4035 15.5747 27.4664 15.2057C27.4958 15.0422 27.5084 14.8787 27.5 14.711C27.4916 14.3798 27.2945 14.0527 27.2484 13.7215C27.2233 13.537 27.2065 13.3526 27.2107 13.1681C27.2107 13.1681 27.2107 13.1681 27.2107 13.1639L28.045 11.9187V10.7531C28.045 10.5812 27.9025 10.4386 27.7264 10.4386H27.3239V6.01113C27.3239 4.39275 26.0074 3.07624 24.389 3.07624H17.4081C17.3872 2.51441 17.1608 1.96098 16.6786 1.64652C15.664 0.984075 15.8652 -0.181498 13.6515 0.0239446C11.4377 -0.181498 11.639 0.984075 10.6243 1.64652C10.1422 1.96098 9.91576 2.51441 9.89479 3.07624H2.9349C1.31651 3.07624 0 4.39275 0 6.01113V28.6014C0 33.8507 3.01456 35.6578 6.57417 37.0707C7.11084 37.2845 7.66427 37.49 8.21771 37.6954C9.82771 38.2908 11.4964 38.9113 12.9555 39.8086C13.0016 39.8337 13.0477 39.8673 13.0938 39.8924L13.6598 40.2488L14.1546 39.9385L14.2217 39.8966C15.7143 38.9532 17.4333 38.316 19.0978 37.6996C19.1146 37.6954 19.1313 37.687 19.1439 37.6829C19.5087 37.5487 19.8692 37.4145 20.2256 37.2762C20.3933 37.2133 20.5569 37.1504 20.7204 37.0833C24.2926 35.6704 27.3155 33.8675 27.3155 28.6056V17.8807C27.4413 17.843 27.5587 17.7759 27.6551 17.6794C27.8144 17.5201 27.8857 17.3189 27.8857 17.1134C27.8857 17.0547 27.9234 17.0086 27.978 16.9918L30.2881 16.2413C30.351 16.2204 30.4097 16.2791 30.3888 16.342L29.1016 19.8303C29.0806 19.8932 29.0177 19.9351 28.9507 19.9351H28.0157C27.9318 19.9351 27.8564 20.0022 27.8564 20.0902C27.8564 20.6353 28.0073 21.1636 28.3008 21.6122C28.8207 22.4382 29.7179 22.9287 30.6948 22.9287C32.2629 22.9287 33.5333 21.6541 33.5333 20.0861C33.5333 20.0022 33.462 19.9309 33.374 19.9309L33.3824 19.9393ZM17.2069 4.11184C17.2823 3.94832 17.3369 3.77223 17.3704 3.58775H24.389C25.7307 3.58775 26.8208 4.67785 26.8208 6.01952V10.447H26.3763C26.2715 10.447 26.1709 10.4973 26.1122 10.5896L25.7768 11.0885C25.7432 11.1388 25.7265 11.2017 25.7265 11.2646V12.7698L21.7182 16.0233L20.0076 11.2269C19.8399 10.7531 19.0768 9.87262 17.5507 9.87262H15.5843C15.2363 9.87262 14.9177 9.58751 14.9177 9.23952V7.74691C15.2824 7.42827 15.5801 7.009 15.7185 6.5478L16.0203 5.52478C16.4732 5.03842 16.7373 4.88329 16.9805 4.53949C17.0392 4.45564 17.0979 4.3592 17.1566 4.246C17.1775 4.20827 17.1943 4.17053 17.2153 4.12861L17.2069 4.11184ZM13.6515 15.147C10.3476 13.428 8.9137 10.2458 8.86758 10.1451C8.93047 10.2164 10.9136 12.5476 13.6515 13.6964C14.9554 14.2456 16.427 14.5265 17.9406 14.1659L17.2614 16.1826C15.8694 16.0652 14.6703 15.6753 13.6515 15.147ZM16.339 19.7171L18.4479 23.6121C16.3096 23.3564 14.7583 22.87 13.6473 22.325C11.3077 21.1845 10.8843 19.7842 10.8675 19.7171C10.9262 19.7548 12.163 20.4802 13.6473 20.5473C14.5194 20.5892 15.4795 20.4047 16.339 19.7129V19.7171ZM17.0937 3.12236C17.0727 3.59194 16.9092 4.07829 16.8547 4.22923C16.8421 4.26277 16.8379 4.27954 16.8379 4.27954C16.8379 4.26277 16.8379 4.246 16.8379 4.22923C16.8295 3.5584 16.6451 3.2146 16.3977 2.98819C15.9533 2.58569 15.295 2.56053 15.0476 1.7178C15.0476 1.7178 15.4543 2.07418 16.2635 2.07418C16.9637 2.07418 17.1188 2.58569 17.0979 3.11816L17.0937 3.12236ZM13.6515 0.32582C13.8988 0.304856 14.947 0.246158 15.2447 0.661236C16.012 1.73876 16.4438 1.80585 16.4438 1.80585C14.7709 1.80585 14.8003 0.371939 13.6515 0.330012C13.6347 0.330012 13.6179 0.330012 13.6011 0.330012C13.6011 0.330012 13.6221 0.330012 13.6515 0.330012V0.32582ZM0.503125 28.614V6.01952C0.503125 4.67785 1.59323 3.58775 2.9349 3.58775H9.92834C9.96188 3.77223 10.0164 3.94832 10.0919 4.11184C10.1086 4.15376 10.1296 4.1915 10.1505 4.22923C10.2092 4.34663 10.2679 4.43887 10.3266 4.52272C10.5698 4.86652 10.834 5.02585 11.2868 5.50801L11.5886 6.53103C11.727 6.99223 12.0247 7.4115 12.3853 7.73014V9.22275C12.3853 9.57493 12.0708 9.85585 11.7228 9.85585H9.01013C7.80263 9.85585 6.91378 10.5854 6.8425 11.5371L6.58255 18.1448L4.0837 28.2702V30.3037C4.0837 30.5552 4.36461 30.7062 4.57844 30.5636L5.68951 29.8131C5.88656 29.6832 5.99138 29.4526 5.96623 29.2178L5.64339 26.4296L8.48185 19.6794C8.55732 19.4991 8.59925 19.3104 8.60763 19.1133L8.77534 13.5119L10.6495 19.4068C10.6746 19.541 8.84242 22.7736 8.46508 23.4067C8.41896 23.4821 8.38961 23.5618 8.38123 23.6499L6.65383 36.555C3.30805 35.2133 0.511511 33.465 0.511511 28.6056L0.503125 28.614ZM13.6598 39.6618L13.3664 39.4773C13.1483 39.339 12.9219 39.2048 12.6955 39.079C10.0751 31.6663 8.6286 24.9915 8.54474 24.5974C8.67052 24.9999 10.8549 31.9724 13.6515 38.7436C13.7521 38.9868 13.8569 39.2342 13.9575 39.4773L13.6598 39.6618ZM18.9301 37.23C18.8672 37.2552 18.8085 37.2762 18.7456 37.2971C16.7708 35.3852 15.0644 33.3686 13.6515 31.4986C10.5489 27.3814 8.84662 23.9475 8.75438 23.7589C8.86758 23.935 10.9094 27.0963 13.6515 29.8886C15.4543 31.7208 17.6765 33.4189 19.7225 33.9765L20.1502 36.7646C19.7477 36.9198 19.3368 37.0749 18.9259 37.2258L18.9301 37.23ZM26.8166 28.614C26.8166 33.486 24.0075 35.2301 20.6575 36.5718L18.9259 23.6582C18.9175 23.5744 18.8882 23.4905 18.842 23.4151C18.4647 22.782 16.6325 19.5536 16.6576 19.4152L18.5318 13.5203L20.6994 18.6563C20.8755 19.0798 21.4289 19.1846 21.7434 18.8534L26.6782 13.9605L26.9549 13.5496C26.9465 13.6125 26.9423 13.6712 26.934 13.7341C26.8878 14.0611 26.6908 14.3924 26.6824 14.7236C26.6489 15.277 26.9172 15.7969 26.9633 16.3336C26.7998 16.3587 26.6489 16.4342 26.5273 16.5558C26.3721 16.7109 26.2925 16.9164 26.2967 17.1218C26.2967 17.1763 26.2589 17.2266 26.2044 17.2434L23.4372 18.1406C23.4372 18.1406 23.4372 18.1406 23.4289 18.1406C23.4205 18.1406 23.4121 18.149 23.4037 18.1574C23.3953 18.1616 23.3827 18.1658 23.3785 18.1742C23.3744 18.1784 23.3702 18.1826 23.366 18.1868C23.3576 18.1993 23.3492 18.2077 23.3408 18.2203C23.3324 18.2371 23.3282 18.258 23.324 18.2748L21.8818 22.1782C21.8566 22.2411 21.7979 22.283 21.7308 22.283H20.7958C20.712 22.283 20.6365 22.3501 20.6365 22.434C20.6365 22.979 20.7875 23.5073 21.0809 23.9559C21.605 24.7819 22.4981 25.2766 23.475 25.2766C25.0431 25.2766 26.3176 24.002 26.3134 22.434C26.3134 22.3501 26.238 22.283 26.1541 22.283H25.2191C25.1521 22.283 25.0934 22.2411 25.0682 22.1782L23.7014 18.4677C23.6846 18.4257 23.7098 18.3796 23.7517 18.367L26.2925 17.5411C26.347 17.5201 26.4099 17.5411 26.4434 17.5914C26.4644 17.6249 26.4895 17.6543 26.5189 17.6836C26.6027 17.7675 26.7034 17.8262 26.8082 17.8681V28.614H26.8166ZM24.8334 22.8071C24.8418 22.7233 24.9089 22.6562 24.9927 22.6562H25.5126C25.6049 22.6562 25.6762 22.74 25.672 22.8323C25.5839 23.9727 24.6322 24.8741 23.4666 24.8741C23.324 24.8741 23.1815 24.8615 23.0473 24.8364C24.0242 24.6519 24.7705 23.8259 24.8376 22.8113L24.8334 22.8071ZM22.8041 22.2076C22.7748 22.2579 22.7203 22.283 22.6658 22.283H22.4142C22.3052 22.283 22.2256 22.174 22.2633 22.0692L23.3702 19.063C23.3785 19.5117 23.345 19.9603 23.2989 20.4047C23.2318 21.0462 23.1354 21.6415 22.8 22.2034L22.8041 22.2076ZM24.5525 22.2872H24.3009C24.2464 22.2872 24.1919 22.2579 24.1626 22.2118C24.0158 21.9602 23.9194 21.7086 23.8439 21.4613C23.6637 20.7695 23.6259 20.0693 23.5966 19.3649C23.5966 19.2685 23.5966 19.172 23.5966 19.0756L24.7034 22.0776C24.7454 22.1782 24.6657 22.2914 24.5567 22.2914L24.5525 22.2872ZM30.8164 16.7235L31.9233 19.7255C31.961 19.8261 31.8814 19.9393 31.7724 19.9393H31.5208C31.4663 19.9393 31.4118 19.91 31.3824 19.8638C31.2315 19.6123 31.1393 19.3607 31.0638 19.1133C30.8835 18.4215 30.8458 17.7214 30.8164 17.017C30.8164 16.9206 30.8164 16.8241 30.8164 16.7235ZM29.8856 19.9393H29.6341C29.5251 19.9393 29.4496 19.8303 29.4831 19.7255L30.59 16.7193C30.5984 17.1637 30.5649 17.6124 30.5187 18.061C30.4516 18.7067 30.3552 19.2978 30.0198 19.8596C29.9904 19.91 29.9359 19.9351 29.8814 19.9351L29.8856 19.9393ZM30.7326 22.5094C30.59 22.5094 30.4516 22.4927 30.3133 22.4675C31.286 22.283 32.0323 21.4571 32.1036 20.4466C32.112 20.3628 32.1749 20.2957 32.2629 20.2957H32.7828C32.875 20.2957 32.9463 20.3754 32.9421 20.4718C32.8541 21.6122 31.9023 22.5136 30.7368 22.5136L30.7326 22.5094Z" fill="white"/>
<path d="M38.6156 3.10913H36.9385V15.4902H38.6156V3.10913Z" fill="#CD2A3E"/>
<path d="M38.6156 15.4902H36.9385V27.8714H38.6156V15.4902Z" fill="white"/>
<path d="M38.6156 27.8754H36.9385V40.2565H38.6156V27.8754Z" fill="#436F4D"/>
<path d="M48.711 5.61242H50.8417L54.5463 14.6579H54.6826L58.3872 5.61242H60.5178V17.2488H58.8474V8.82832H58.7394L55.3076 17.2317H53.9213L50.4894 8.82264H50.3815V17.2488H48.711V5.61242Z" fill="white"/>
<path d="M65.4738 17.442C64.9208 17.442 64.4208 17.3397 63.9738 17.1351C63.5268 16.9268 63.1727 16.6257 62.9113 16.2317C62.6537 15.8378 62.5249 15.3548 62.5249 14.7829C62.5249 14.2904 62.6196 13.8851 62.809 13.567C62.9984 13.2488 63.2541 12.9969 63.5761 12.8113C63.8981 12.6257 64.2579 12.4855 64.6556 12.3908C65.0534 12.2961 65.4587 12.2242 65.8715 12.1749C66.3943 12.1143 66.8185 12.0651 67.1443 12.0272C67.47 11.9855 67.7068 11.9192 67.8545 11.8283C68.0022 11.7374 68.0761 11.5897 68.0761 11.3851V11.3454C68.0761 10.8492 67.9359 10.4647 67.6556 10.192C67.3791 9.91923 66.9662 9.78287 66.417 9.78287C65.845 9.78287 65.3943 9.90976 65.0647 10.1636C64.739 10.4136 64.5136 10.692 64.3886 10.9988L62.792 10.6351C62.9814 10.1048 63.2579 9.67681 63.6215 9.35105C63.989 9.02151 64.4113 8.78287 64.8886 8.63514C65.3659 8.48363 65.8677 8.40787 66.3943 8.40787C66.7427 8.40787 67.1121 8.44954 67.5022 8.53287C67.8962 8.61242 68.2636 8.76014 68.6045 8.97605C68.9492 9.19196 69.2314 9.50067 69.4511 9.90219C69.6708 10.2999 69.7806 10.817 69.7806 11.4533V17.2488H68.1215V16.0556H68.0534C67.9435 16.2753 67.7787 16.4912 67.559 16.7033C67.3393 16.9154 67.0571 17.0916 66.7124 17.2317C66.3678 17.3719 65.9549 17.442 65.4738 17.442ZM65.8431 16.0783C66.3128 16.0783 66.7143 15.9855 67.0477 15.7999C67.3848 15.6143 67.6405 15.3719 67.8147 15.0726C67.9928 14.7696 68.0818 14.4457 68.0818 14.1011V12.9761C68.0212 13.0367 67.9037 13.0935 67.7295 13.1465C67.559 13.1957 67.364 13.2393 67.1443 13.2772C66.9246 13.3113 66.7106 13.3435 66.5022 13.3738C66.2939 13.4003 66.1196 13.423 65.9795 13.442C65.6499 13.4836 65.3488 13.5537 65.0761 13.6522C64.8071 13.7507 64.5912 13.8927 64.4284 14.0783C64.2693 14.2601 64.1897 14.5026 64.1897 14.8056C64.1897 15.2261 64.345 15.5442 64.6556 15.7601C64.9662 15.9723 65.3621 16.0783 65.8431 16.0783Z" fill="white"/>
<path d="M75.7025 20.7033C75.0093 20.7033 74.4127 20.6124 73.9127 20.4306C73.4165 20.2488 73.0112 20.0082 72.6968 19.709C72.3824 19.4098 72.1476 19.0821 71.9923 18.7261L73.4525 18.1238C73.5548 18.2904 73.6911 18.4666 73.8616 18.6522C74.0358 18.8416 74.2707 19.0026 74.5661 19.1351C74.8654 19.2677 75.2499 19.334 75.7196 19.334C76.3635 19.334 76.8957 19.1768 77.3161 18.8624C77.7366 18.5518 77.9468 18.0556 77.9468 17.3738V15.6579H77.8389C77.7366 15.8435 77.5889 16.0499 77.3957 16.2772C77.2063 16.5045 76.9449 16.7014 76.6116 16.8681C76.2783 17.0348 75.8445 17.1181 75.3105 17.1181C74.6211 17.1181 73.9999 16.9571 73.4468 16.6351C72.8976 16.3094 72.462 15.8302 72.14 15.1976C71.8218 14.5613 71.6627 13.7791 71.6627 12.8511C71.6627 11.923 71.8199 11.1276 72.1343 10.4647C72.4525 9.80181 72.8881 9.29423 73.4411 8.94196C73.9942 8.5859 74.6211 8.40787 75.3218 8.40787C75.8635 8.40787 76.301 8.49878 76.6343 8.6806C76.9677 8.85863 77.2271 9.06696 77.4127 9.3056C77.6021 9.54423 77.748 9.75446 77.8502 9.93628H77.9752V8.52151H79.64V17.442C79.64 18.192 79.4658 18.8075 79.1173 19.2886C78.7688 19.7696 78.2972 20.1257 77.7025 20.3567C77.1116 20.5878 76.4449 20.7033 75.7025 20.7033ZM75.6855 15.709C76.1741 15.709 76.587 15.5954 76.9241 15.3681C77.265 15.137 77.5226 14.8075 77.6968 14.3795C77.8749 13.9476 77.9639 13.4306 77.9639 12.8283C77.9639 12.2412 77.8767 11.7242 77.7025 11.2772C77.5283 10.8302 77.2726 10.4817 76.9355 10.2317C76.5983 9.97795 76.1817 9.85105 75.6855 9.85105C75.1741 9.85105 74.748 9.98363 74.4071 10.2488C74.0661 10.5101 73.8086 10.8662 73.6343 11.317C73.4639 11.7677 73.3786 12.2715 73.3786 12.8283C73.3786 13.4003 73.4658 13.9022 73.64 14.334C73.8142 14.7658 74.0718 15.1029 74.4127 15.3454C74.7574 15.5878 75.1817 15.709 75.6855 15.709Z" fill="white"/>
<path d="M82.9923 20.5215C82.7385 20.5215 82.5074 20.5007 82.2991 20.459C82.0908 20.4211 81.9355 20.3795 81.8332 20.334L82.2423 18.942C82.5529 19.0253 82.8294 19.0613 83.0718 19.0499C83.3142 19.0386 83.5283 18.9476 83.7139 18.7772C83.9033 18.6067 84.0699 18.3283 84.2139 17.942L84.4241 17.3624L81.2309 8.52151H83.0491L85.2593 15.2942H85.3502L87.5605 8.52151H89.3843L85.7877 18.4136C85.6211 18.8681 85.4089 19.2526 85.1514 19.567C84.8938 19.8851 84.587 20.1238 84.2309 20.2829C83.8749 20.442 83.462 20.5215 82.9923 20.5215Z" fill="white"/>
<path d="M93.2707 17.442C92.7177 17.442 92.2177 17.3397 91.7707 17.1351C91.3237 16.9268 90.9695 16.6257 90.7082 16.2317C90.4506 15.8378 90.3218 15.3548 90.3218 14.7829C90.3218 14.2904 90.4165 13.8851 90.6059 13.567C90.7953 13.2488 91.051 12.9969 91.373 12.8113C91.6949 12.6257 92.0548 12.4855 92.4525 12.3908C92.8502 12.2961 93.2555 12.2242 93.6684 12.1749C94.1911 12.1143 94.6154 12.0651 94.9411 12.0272C95.2669 11.9855 95.5036 11.9192 95.6514 11.8283C95.7991 11.7374 95.873 11.5897 95.873 11.3851V11.3454C95.873 10.8492 95.7328 10.4647 95.4525 10.192C95.176 9.91923 94.7631 9.78287 94.2139 9.78287C93.6419 9.78287 93.1911 9.90976 92.8616 10.1636C92.5358 10.4136 92.3105 10.692 92.1855 10.9988L90.5889 10.6351C90.7783 10.1048 91.0548 9.67681 91.4184 9.35105C91.7858 9.02151 92.2082 8.78287 92.6855 8.63514C93.1627 8.48363 93.6646 8.40787 94.1911 8.40787C94.5396 8.40787 94.9089 8.44954 95.2991 8.53287C95.693 8.61242 96.0605 8.76014 96.4014 8.97605C96.7461 9.19196 97.0283 9.50067 97.248 9.90219C97.4677 10.2999 97.5775 10.817 97.5775 11.4533V17.2488H95.9184V16.0556H95.8502C95.7404 16.2753 95.5756 16.4912 95.3559 16.7033C95.1362 16.9154 94.854 17.0916 94.5093 17.2317C94.1646 17.3719 93.7517 17.442 93.2707 17.442ZM93.64 16.0783C94.1097 16.0783 94.5112 15.9855 94.8446 15.7999C95.1817 15.6143 95.4374 15.3719 95.6116 15.0726C95.7896 14.7696 95.8786 14.4457 95.8786 14.1011V12.9761C95.818 13.0367 95.7006 13.0935 95.5264 13.1465C95.3559 13.1957 95.1608 13.2393 94.9411 13.2772C94.7214 13.3113 94.5074 13.3435 94.2991 13.3738C94.0908 13.4003 93.9165 13.423 93.7764 13.442C93.4468 13.4836 93.1457 13.5537 92.873 13.6522C92.604 13.7507 92.3881 13.8927 92.2252 14.0783C92.0661 14.2601 91.9866 14.5026 91.9866 14.8056C91.9866 15.2261 92.1419 15.5442 92.4525 15.7601C92.7631 15.9723 93.1589 16.0783 93.64 16.0783Z" fill="white"/>
<path d="M99.8403 17.2488V8.52151H101.482V9.90787H101.573C101.732 9.43817 102.013 9.06885 102.414 8.79992C102.819 8.52719 103.278 8.39082 103.789 8.39082C103.895 8.39082 104.02 8.39461 104.164 8.40219C104.312 8.40976 104.427 8.41923 104.511 8.4306V10.0556C104.443 10.0367 104.321 10.0158 104.147 9.9931C103.973 9.96658 103.799 9.95332 103.624 9.95332C103.223 9.95332 102.865 10.0386 102.551 10.209C102.24 10.3757 101.994 10.6086 101.812 10.9079C101.63 11.2033 101.539 11.5404 101.539 11.9192V17.2488H99.8403Z" fill="white"/>
<path d="M48.711 36.2488V24.6124H50.4667V30.1692H50.6088L55.4894 24.6124H57.6997L53.0065 29.8511L57.7167 36.2488H55.6031L51.8417 31.0499L50.4667 32.6295V36.2488H48.711Z" fill="white"/>
<path d="M62.2352 36.4249C61.417 36.4249 60.703 36.2374 60.0931 35.8624C59.4833 35.4874 59.0098 34.9628 58.6727 34.2886C58.3356 33.6143 58.167 32.8264 58.167 31.9249C58.167 31.0196 58.3356 30.2279 58.6727 29.5499C59.0098 28.8719 59.4833 28.3454 60.0931 27.9704C60.703 27.5954 61.417 27.4079 62.2352 27.4079C63.0534 27.4079 63.7674 27.5954 64.3772 27.9704C64.9871 28.3454 65.4606 28.8719 65.7977 29.5499C66.1348 30.2279 66.3034 31.0196 66.3034 31.9249C66.3034 32.8264 66.1348 33.6143 65.7977 34.2886C65.4606 34.9628 64.9871 35.4874 64.3772 35.8624C63.7674 36.2374 63.0534 36.4249 62.2352 36.4249ZM62.2409 34.9988C62.7712 34.9988 63.2106 34.8586 63.559 34.5783C63.9075 34.298 64.1651 33.9249 64.3318 33.459C64.5022 32.9931 64.5874 32.4798 64.5874 31.9192C64.5874 31.3624 64.5022 30.8511 64.3318 30.3851C64.1651 29.9154 63.9075 29.5386 63.559 29.2545C63.2106 28.9704 62.7712 28.8283 62.2409 28.8283C61.7068 28.8283 61.2636 28.9704 60.9113 29.2545C60.5628 29.5386 60.3034 29.9154 60.1329 30.3851C59.9662 30.8511 59.8829 31.3624 59.8829 31.9192C59.8829 32.4798 59.9662 32.9931 60.1329 33.459C60.3034 33.9249 60.5628 34.298 60.9113 34.5783C61.2636 34.8586 61.7068 34.9988 62.2409 34.9988ZM60.5647 26.1522C60.2996 26.1522 60.0666 26.0537 59.8659 25.8567C59.6651 25.656 59.5647 25.4249 59.5647 25.1636C59.5647 24.8795 59.6651 24.6427 59.8659 24.4533C60.0666 24.2639 60.2996 24.1692 60.5647 24.1692C60.8488 24.1692 61.0856 24.2639 61.2749 24.4533C61.4681 24.6427 61.5647 24.8795 61.5647 25.1636C61.5647 25.4249 61.4681 25.656 61.2749 25.8567C61.0856 26.0537 60.8488 26.1522 60.5647 26.1522ZM63.9056 26.1522C63.6405 26.1522 63.4075 26.0537 63.2068 25.8567C63.006 25.656 62.9056 25.4249 62.9056 25.1636C62.9056 24.8795 63.006 24.6427 63.2068 24.4533C63.4075 24.2639 63.6405 24.1692 63.9056 24.1692C64.1897 24.1692 64.4265 24.2639 64.6159 24.4533C64.809 24.6427 64.9056 24.8795 64.9056 25.1636C64.9056 25.4249 64.809 25.656 64.6159 25.8567C64.4265 26.0537 64.1897 26.1522 63.9056 26.1522Z" fill="white"/>
<path d="M68.0178 36.2488V35.084L72.7451 29.0783V28.9988H68.1713V27.5215H74.8644V28.7601L70.319 34.692V34.7715H75.0235V36.2488H68.0178Z" fill="white"/>
<path d="M78.7267 24.6124V36.2488H77.0278V24.6124H78.7267Z" fill="white"/>
<path d="M84.6883 36.4249C83.8701 36.4249 83.1561 36.2374 82.5463 35.8624C81.9364 35.4874 81.4629 34.9628 81.1258 34.2886C80.7887 33.6143 80.6201 32.8264 80.6201 31.9249C80.6201 31.0196 80.7887 30.2279 81.1258 29.5499C81.4629 28.8719 81.9364 28.3454 82.5463 27.9704C83.1561 27.5954 83.8701 27.4079 84.6883 27.4079C85.5065 27.4079 86.2205 27.5954 86.8303 27.9704C87.4402 28.3454 87.9137 28.8719 88.2508 29.5499C88.5879 30.2279 88.7565 31.0196 88.7565 31.9249C88.7565 32.8264 88.5879 33.6143 88.2508 34.2886C87.9137 34.9628 87.4402 35.4874 86.8303 35.8624C86.2205 36.2374 85.5065 36.4249 84.6883 36.4249ZM84.694 34.9988C85.2243 34.9988 85.6637 34.8586 86.0122 34.5783C86.3606 34.298 86.6182 33.9249 86.7849 33.459C86.9553 32.9931 87.0406 32.4798 87.0406 31.9192C87.0406 31.3624 86.9553 30.8511 86.7849 30.3851C86.6182 29.9154 86.3606 29.5386 86.0122 29.2545C85.6637 28.9704 85.2243 28.8283 84.694 28.8283C84.1599 28.8283 83.7167 28.9704 83.3644 29.2545C83.0159 29.5386 82.7565 29.9154 82.586 30.3851C82.4194 30.8511 82.336 31.3624 82.336 31.9192C82.336 32.4798 82.4194 32.9931 82.586 33.459C82.7565 33.9249 83.0159 34.298 83.3644 34.5783C83.7167 34.8586 84.1599 34.9988 84.694 34.9988ZM83.0178 26.1522C82.7527 26.1522 82.5197 26.0537 82.319 25.8567C82.1182 25.656 82.0178 25.4249 82.0178 25.1636C82.0178 24.8795 82.1182 24.6427 82.319 24.4533C82.5197 24.2639 82.7527 24.1692 83.0178 24.1692C83.3019 24.1692 83.5387 24.2639 83.7281 24.4533C83.9213 24.6427 84.0178 24.8795 84.0178 25.1636C84.0178 25.4249 83.9213 25.656 83.7281 25.8567C83.5387 26.0537 83.3019 26.1522 83.0178 26.1522ZM86.3588 26.1522C86.0936 26.1522 85.8606 26.0537 85.6599 25.8567C85.4591 25.656 85.3588 25.4249 85.3588 25.1636C85.3588 24.8795 85.4591 24.6427 85.6599 24.4533C85.8606 24.2639 86.0936 24.1692 86.3588 24.1692C86.6428 24.1692 86.8796 24.2639 87.069 24.4533C87.2622 24.6427 87.3588 24.8795 87.3588 25.1636C87.3588 25.4249 87.2622 25.656 87.069 25.8567C86.8796 26.0537 86.6428 26.1522 86.3588 26.1522Z" fill="white"/>
<path d="M92.3517 31.067V36.2488H90.6528V27.5215H92.2835V28.942H92.3914C92.5922 28.4798 92.9066 28.1086 93.3346 27.8283C93.7664 27.548 94.31 27.4079 94.9653 27.4079C95.56 27.4079 96.0808 27.5329 96.5278 27.7829C96.9748 28.0291 97.3213 28.3965 97.5676 28.8851C97.8138 29.3738 97.9369 29.9779 97.9369 30.6976V36.2488H96.238V30.9022C96.238 30.2696 96.0732 29.7753 95.7437 29.4192C95.4142 29.0594 94.9615 28.8795 94.3857 28.8795C93.9918 28.8795 93.6414 28.9647 93.3346 29.1351C93.0316 29.3056 92.791 29.5556 92.613 29.8851C92.4388 30.2109 92.3517 30.6048 92.3517 31.067Z" fill="white"/>
<path d="M100.977 39.5215C100.723 39.5215 100.492 39.5007 100.283 39.459C100.075 39.4211 99.9198 39.3795 99.8176 39.334L100.227 37.942C100.537 38.0253 100.814 38.0613 101.056 38.0499C101.299 38.0386 101.513 37.9476 101.698 37.7772C101.888 37.6067 102.054 37.3283 102.198 36.942L102.408 36.3624L99.2153 27.5215H101.033L103.244 34.2942H103.335L105.545 27.5215H107.369L103.772 37.4136C103.605 37.8681 103.393 38.2526 103.136 38.567C102.878 38.8851 102.571 39.1238 102.215 39.2829C101.859 39.442 101.446 39.5215 100.977 39.5215Z" fill="white"/>
</svg>
