<svg width="177" height="66" viewBox="0 0 177 66" fill="none" xmlns="http://www.w3.org/2000/svg">
<path d="M54.73 32.6903H53.1971C53.0871 32.6903 52.9909 32.6215 52.9496 32.5184L50.5987 26.1326C50.5987 26.1326 50.5987 26.1188 50.5987 26.1119C50.5987 26.0913 50.5987 26.0776 50.5919 26.0569C50.5919 26.0501 50.5919 26.0432 50.585 26.0432C50.585 26.0294 50.5712 26.0157 50.5644 26.002C50.5575 25.9882 50.5437 25.9745 50.5369 25.9607C50.53 25.947 50.5094 25.9401 50.4956 25.9332C50.4819 25.9263 50.4681 25.9126 50.4544 25.9057C50.4406 25.9057 50.4338 25.9057 50.42 25.892C50.3994 25.892 50.3788 25.8782 50.3513 25.8782C50.3444 25.8782 50.3375 25.8782 50.3238 25.8782C50.31 25.8782 50.2894 25.8782 50.2688 25.8851L45.732 27.3561C45.6358 27.3905 45.5396 27.3561 45.4846 27.2736C45.4433 27.2186 45.4021 27.1705 45.3608 27.1224C45.1615 26.9162 44.9003 26.7993 44.6253 26.7581C44.6597 26.1394 44.9278 25.5345 45.0309 24.9296C45.079 24.6615 45.0996 24.3935 45.0859 24.1185C45.0721 23.5755 44.7491 23.0393 44.6734 22.4963C44.6322 22.1938 44.6047 21.8914 44.6116 21.5889C44.6116 21.5889 44.6116 21.5889 44.6116 21.582L45.9795 19.5405V17.6296C45.9795 17.3477 45.7458 17.114 45.4571 17.114H44.7972V9.85518C44.7972 7.20185 42.6388 5.04345 39.9854 5.04345H28.5404C28.506 4.12235 28.1349 3.215 27.3444 2.69945C25.6809 1.61338 26.0108 -0.297564 22.3814 0.0392569C18.752 -0.297564 19.0819 1.61338 17.4185 2.69945C16.628 3.215 16.2568 4.12235 16.2224 5.04345H4.81173C2.1584 5.04345 0 7.20185 0 9.85518V46.8917C0 55.4978 4.94233 58.4605 10.7783 60.777C11.6581 61.1276 12.5655 61.4644 13.4728 61.8012C16.1124 62.7773 18.8482 63.7946 21.2403 65.2656C21.3159 65.3069 21.3916 65.3619 21.4672 65.4031L22.3952 65.9874L23.2063 65.4787L23.3163 65.41C25.7634 63.8634 28.5817 62.8185 31.3106 61.8081C31.3381 61.8012 31.3656 61.7875 31.3862 61.7806C31.9842 61.5606 32.5754 61.3406 33.1597 61.1138C33.4346 61.0107 33.7027 60.9076 33.9708 60.7976C39.8273 58.4811 44.7834 55.5253 44.7834 46.8986V29.3152C44.9896 29.2533 45.1821 29.1433 45.3402 28.9852C45.6014 28.724 45.7183 28.3941 45.7183 28.0572C45.7183 27.961 45.7801 27.8854 45.8695 27.8579L49.657 26.6275C49.7601 26.5931 49.8564 26.6893 49.822 26.7925L47.7117 32.5115C47.6773 32.6146 47.5742 32.6834 47.4642 32.6834H45.9314C45.7939 32.6834 45.6702 32.7934 45.6702 32.9377C45.6702 33.8313 45.9176 34.6974 46.3988 35.4329C47.2512 36.7871 48.7222 37.5913 50.3238 37.5913C52.8946 37.5913 54.9774 35.5017 54.9774 32.9308C54.9774 32.7934 54.8606 32.6765 54.7162 32.6765L54.73 32.6903ZM28.2105 6.7413C28.3342 6.47322 28.4236 6.18452 28.4785 5.88207H39.9854C42.1851 5.88207 43.9723 7.66928 43.9723 9.86893V17.1278H43.2437C43.0718 17.1278 42.9069 17.2102 42.8106 17.3615L42.2607 18.1795C42.2057 18.262 42.1782 18.3651 42.1782 18.4682V20.9359L35.6068 26.27L32.8022 18.4063C32.5273 17.6296 31.2762 16.186 28.7741 16.186H25.5503C24.9797 16.186 24.4573 15.7186 24.4573 15.1481V12.701C25.0553 12.1786 25.5434 11.4912 25.7702 10.735L26.2652 9.05781C27.0075 8.26043 27.4406 8.0061 27.8393 7.44244C27.9355 7.30496 28.0317 7.14686 28.128 6.96127C28.1623 6.8994 28.1898 6.83754 28.2242 6.7688L28.2105 6.7413ZM22.3814 24.8334C16.9648 22.0151 14.6139 16.7978 14.5383 16.6328C14.6414 16.7497 17.8928 20.5716 22.3814 22.455C24.5192 23.3555 26.9319 23.8161 29.4134 23.2249L28.2998 26.5312C26.0177 26.3388 24.0518 25.6995 22.3814 24.8334ZM26.7876 32.3259L30.2451 38.7118C26.7395 38.2925 24.1961 37.4951 22.3745 36.6015C18.5389 34.7318 17.8446 32.4359 17.8171 32.3259C17.9134 32.3878 19.9412 33.577 22.3745 33.687C23.8043 33.7557 25.3784 33.4533 26.7876 32.3191V32.3259ZM28.0249 5.11906C27.9905 5.88894 27.7224 6.68631 27.6331 6.93377C27.6124 6.98876 27.6056 7.01626 27.6056 7.01626C27.6056 6.98876 27.6056 6.96127 27.6056 6.93377C27.5918 5.83395 27.2894 5.27029 26.8838 4.8991C26.1552 4.23921 25.076 4.19796 24.6704 2.81631C24.6704 2.81631 25.3372 3.40059 26.6638 3.40059C27.8118 3.40059 28.0661 4.23921 28.0317 5.11219L28.0249 5.11906ZM22.3814 0.534177C22.787 0.499808 24.5054 0.403573 24.9935 1.08409C26.2514 2.85068 26.9594 2.96066 26.9594 2.96066C24.2167 2.96066 24.2649 0.60979 22.3814 0.541051C22.3539 0.541051 22.3264 0.541051 22.2989 0.541051C22.2989 0.541051 22.3333 0.541051 22.3814 0.541051V0.534177ZM0.824867 46.9123V9.86893C0.824867 7.66928 2.61208 5.88207 4.81173 5.88207H16.2774C16.3324 6.18452 16.4217 6.47322 16.5455 6.7413C16.573 6.81004 16.6073 6.87191 16.6417 6.93377C16.7379 7.12624 16.8342 7.27747 16.9304 7.41495C17.3291 7.9786 17.7621 8.23981 18.5045 9.03031L18.9994 10.7075C19.2263 11.4637 19.7143 12.1511 20.3055 12.6735V15.1206C20.3055 15.698 19.7899 16.1585 19.2194 16.1585H14.772C12.7923 16.1585 11.3351 17.3546 11.2182 18.915L10.792 29.7482L6.69517 46.3487V49.6825C6.69517 50.095 7.15573 50.3424 7.50629 50.1087L9.32788 48.8783C9.65095 48.6652 9.8228 48.2871 9.78155 47.9022L9.25226 43.331L13.9059 32.2641C14.0296 31.9685 14.0984 31.6592 14.1121 31.3361L14.3871 22.1526L17.4597 31.8173C17.5009 32.0372 14.497 37.337 13.8784 38.375C13.8028 38.4987 13.7547 38.6293 13.7409 38.7736L10.9089 59.9315C5.4235 57.7318 0.838615 54.8654 0.838615 46.8986L0.824867 46.9123ZM22.3952 65.0251L21.914 64.7226C21.5565 64.4958 21.1853 64.2758 20.8142 64.0696C16.518 51.9165 14.1465 40.9733 14.009 40.3271C14.2152 40.987 17.7965 52.4183 22.3814 63.5197C22.5464 63.9184 22.7182 64.3239 22.8832 64.7226L22.3952 65.0251ZM31.0356 61.0382C30.9325 61.0794 30.8363 61.1138 30.7332 61.1482C27.4956 58.0137 24.6979 54.7073 22.3814 51.6416C17.2947 44.8914 14.5039 39.2617 14.3527 38.9524C14.5383 39.2411 17.8859 44.424 22.3814 49.002C25.3372 52.0059 28.9803 54.7898 32.3348 55.7041L33.0359 60.2752C32.376 60.5295 31.7024 60.7839 31.0288 61.0313L31.0356 61.0382ZM43.9654 46.9123C43.9654 54.8998 39.3599 57.7593 33.8677 59.959L31.0288 38.7874C31.015 38.6499 30.9669 38.5124 30.8913 38.3887C30.2726 37.3508 27.2687 32.0579 27.31 31.831L30.3826 22.1663L33.9364 30.5868C34.2251 31.2811 35.1325 31.453 35.648 30.9099L43.7386 22.8881L44.1923 22.2144C44.1785 22.3175 44.1716 22.4138 44.1579 22.5169C44.0823 23.0531 43.7592 23.5961 43.7455 24.1391C43.6905 25.0465 44.1304 25.8988 44.206 26.7787C43.9379 26.8199 43.6905 26.9437 43.4911 27.143C43.2368 27.3974 43.1062 27.7342 43.1131 28.071C43.1131 28.1604 43.0512 28.2428 42.9618 28.2703L38.4251 29.7414C38.4251 29.7414 38.4251 29.7414 38.4113 29.7414C38.3976 29.7414 38.3838 29.7551 38.3701 29.7688C38.3563 29.7757 38.3357 29.7826 38.3288 29.7963C38.322 29.8032 38.3151 29.8101 38.3082 29.817C38.2945 29.8376 38.2807 29.8513 38.267 29.872C38.2532 29.8995 38.2464 29.9338 38.2395 29.9613L35.8749 36.3609C35.8336 36.464 35.7374 36.5328 35.6274 36.5328H34.0945C33.957 36.5328 33.8333 36.6427 33.8333 36.7802C33.8333 37.6738 34.0808 38.5399 34.5619 39.2754C35.4212 40.6296 36.8853 41.4407 38.4869 41.4407C41.0578 41.4407 43.1474 39.3511 43.1406 36.7802C43.1406 36.6427 43.0168 36.5328 42.8794 36.5328H41.3465C41.2365 36.5328 41.1403 36.464 41.099 36.3609L38.8581 30.2775C38.8306 30.2088 38.8719 30.1332 38.9406 30.1125L43.1062 28.7584C43.1956 28.724 43.2987 28.7584 43.3537 28.8409C43.388 28.8959 43.4293 28.944 43.4774 28.9921C43.6149 29.1296 43.7798 29.2258 43.9517 29.2945V46.9123H43.9654ZM40.7141 37.392C40.7278 37.2545 40.8378 37.1445 40.9753 37.1445H41.8277C41.9789 37.1445 42.0957 37.282 42.0889 37.4332C41.9445 39.3029 40.3841 40.7808 38.4732 40.7808C38.2395 40.7808 38.0058 40.7602 37.7858 40.719C39.3874 40.4165 40.611 39.0624 40.721 37.3989L40.7141 37.392ZM37.3871 36.409C37.339 36.4915 37.2496 36.5328 37.1603 36.5328H36.7478C36.5691 36.5328 36.4385 36.354 36.5004 36.1822L38.3151 31.2536C38.3288 31.9891 38.2738 32.7246 38.1982 33.4533C38.0883 34.505 37.9302 35.4811 37.3802 36.4022L37.3871 36.409ZM40.2535 36.5396H39.8411C39.7517 36.5396 39.6624 36.4915 39.6143 36.4159C39.3737 36.0035 39.2156 35.591 39.0918 35.1855C38.7963 34.0513 38.7344 32.9033 38.6863 31.7485C38.6863 31.5904 38.6863 31.4323 38.6863 31.2742L40.501 36.1959C40.5697 36.3609 40.4391 36.5465 40.2604 36.5465L40.2535 36.5396ZM50.5231 27.418L52.3378 32.3397C52.3997 32.5047 52.2691 32.6903 52.0904 32.6903H51.6779C51.5886 32.6903 51.4992 32.6421 51.4511 32.5665C51.2036 32.1541 51.0524 31.7417 50.9287 31.3361C50.6331 30.2019 50.5712 29.054 50.5231 27.8991C50.5231 27.741 50.5231 27.5829 50.5231 27.418ZM48.9971 32.6903H48.5847C48.406 32.6903 48.2822 32.5115 48.3372 32.3397L50.1519 27.4111C50.1657 28.1397 50.1107 28.8752 50.0351 29.6107C49.9251 30.6693 49.767 31.6385 49.2171 32.5596C49.169 32.6421 49.0796 32.6834 48.9902 32.6834L48.9971 32.6903ZM50.3857 36.904C50.1519 36.904 49.9251 36.8765 49.6983 36.8352C51.293 36.5328 52.5166 35.1786 52.6334 33.522C52.6472 33.3845 52.7503 33.2745 52.8946 33.2745H53.747C53.8982 33.2745 54.0151 33.4051 54.0082 33.5632C53.8638 35.4329 52.3035 36.9108 50.3925 36.9108L50.3857 36.904Z" fill="white"/>
<path d="M63.3097 5.09738H60.5602V25.396H63.3097V5.09738Z" fill="#CD2A3E"/>
<path d="M63.3097 25.396H60.5602V45.6948H63.3097V25.396Z" fill="white"/>
<path d="M63.3097 45.7014H60.5602V66H63.3097V45.7014Z" fill="#436F4D"/>
<path d="M79.8611 9.20149H83.3544L89.4279 24.0314H89.6515L95.725 9.20149H99.2183V28.2792H96.4796V14.4739H96.3026L90.6762 28.2512H88.4032L82.7768 14.4646H82.5998V28.2792H79.8611V9.20149Z" fill="white"/>
<path d="M107.343 28.5959C106.437 28.5959 105.617 28.4282 104.884 28.0929C104.151 27.7513 103.571 27.2576 103.142 26.6117C102.72 25.9659 102.509 25.1741 102.509 24.2363C102.509 23.429 102.664 22.7645 102.975 22.2429C103.285 21.7212 103.704 21.3082 104.232 21.0039C104.76 20.6996 105.35 20.4699 106.002 20.3146C106.654 20.1594 107.319 20.0414 107.996 19.9606C108.853 19.8613 109.548 19.7805 110.082 19.7184C110.616 19.6501 111.004 19.5414 111.247 19.3924C111.489 19.2433 111.61 19.0012 111.61 18.6658V18.6006C111.61 17.7871 111.38 17.1567 110.921 16.7096C110.467 16.2625 109.79 16.0389 108.89 16.0389C107.952 16.0389 107.213 16.2469 106.673 16.663C106.139 17.0729 105.769 17.5293 105.564 18.0324L102.947 17.4362C103.257 16.5668 103.711 15.865 104.307 15.3309C104.909 14.7906 105.602 14.3994 106.384 14.1572C107.167 13.9088 107.989 13.7846 108.853 13.7846C109.424 13.7846 110.029 13.8529 110.669 13.9895C111.315 14.1199 111.917 14.3621 112.476 14.7161C113.041 15.0701 113.504 15.5762 113.864 16.2345C114.224 16.8866 114.404 17.7343 114.404 18.7776V28.2792H111.684V26.323H111.573C111.393 26.6831 111.122 27.0371 110.762 27.3849C110.402 27.7327 109.939 28.0214 109.374 28.2512C108.809 28.481 108.132 28.5959 107.343 28.5959ZM107.949 26.3602C108.719 26.3602 109.377 26.2081 109.924 25.9038C110.477 25.5995 110.896 25.202 111.181 24.7114C111.473 24.2146 111.619 23.6836 111.619 23.1185V21.2741C111.52 21.3734 111.327 21.4666 111.042 21.5535C110.762 21.6343 110.442 21.7057 110.082 21.7678C109.722 21.8237 109.371 21.8765 109.03 21.9261C108.688 21.9696 108.402 22.0069 108.173 22.0379C107.632 22.1062 107.139 22.2211 106.691 22.3826C106.251 22.5441 105.897 22.7769 105.629 23.0812C105.369 23.3793 105.238 23.7768 105.238 24.2736C105.238 24.9629 105.493 25.4846 106.002 25.8386C106.511 26.1863 107.16 26.3602 107.949 26.3602Z" fill="white"/>
<path d="M124.113 33.9428C122.977 33.9428 121.999 33.7938 121.179 33.4957C120.365 33.1976 119.701 32.8033 119.186 32.3127C118.67 31.8221 118.285 31.2849 118.03 30.7011L120.424 29.7137C120.592 29.987 120.816 30.2757 121.095 30.58C121.381 30.8905 121.766 31.1545 122.25 31.3718C122.741 31.5892 123.371 31.6979 124.141 31.6979C125.197 31.6979 126.07 31.4401 126.759 30.9247C127.448 30.4155 127.793 29.6019 127.793 28.4841V25.6709H127.616C127.448 25.9752 127.206 26.3136 126.889 26.6863C126.579 27.0589 126.15 27.3818 125.604 27.655C125.057 27.9283 124.346 28.0649 123.471 28.0649C122.34 28.0649 121.322 27.801 120.415 27.2731C119.515 26.739 118.801 25.9535 118.273 24.9163C117.751 23.873 117.49 22.5906 117.49 21.0691C117.49 19.5476 117.748 18.2435 118.263 17.1567C118.785 16.0699 119.499 15.2378 120.406 14.6602C121.313 14.0765 122.34 13.7846 123.489 13.7846C124.377 13.7846 125.095 13.9336 125.641 14.2317C126.188 14.5236 126.613 14.8652 126.917 15.2564C127.228 15.6477 127.467 15.9923 127.634 16.2904H127.839V13.9709H130.569V28.5959C130.569 29.8255 130.283 30.8347 129.712 31.6233C129.14 32.412 128.367 32.9958 127.392 33.3746C126.424 33.7534 125.331 33.9428 124.113 33.9428ZM124.085 25.7547C124.886 25.7547 125.563 25.5684 126.116 25.1958C126.675 24.817 127.097 24.2767 127.383 23.575C127.675 22.867 127.821 22.0193 127.821 21.0319C127.821 20.0693 127.678 19.2216 127.392 18.4888C127.107 17.756 126.687 17.1847 126.135 16.7748C125.582 16.3587 124.899 16.1507 124.085 16.1507C123.247 16.1507 122.548 16.368 121.989 16.8027C121.431 17.2313 121.008 17.815 120.723 18.554C120.443 19.293 120.303 20.119 120.303 21.0319C120.303 21.9696 120.446 22.7925 120.732 23.5004C121.018 24.2084 121.44 24.7611 121.999 25.1585C122.564 25.556 123.259 25.7547 124.085 25.7547Z" fill="white"/>
<path d="M136.065 33.6448C135.649 33.6448 135.27 33.6106 134.928 33.5423C134.587 33.4802 134.332 33.4119 134.164 33.3374L134.835 31.0551C135.344 31.1917 135.798 31.2507 136.195 31.2321C136.593 31.2135 136.944 31.0644 137.248 30.785C137.558 30.5055 137.832 30.0491 138.068 29.4156L138.412 28.4655L133.177 13.9709H136.158L139.782 25.0747H139.931L143.554 13.9709H146.544L140.648 30.1888C140.375 30.934 140.027 31.5643 139.605 32.0798C139.182 32.6014 138.679 32.9927 138.096 33.2535C137.512 33.5143 136.835 33.6448 136.065 33.6448Z" fill="white"/>
<path d="M152.916 28.5959C152.009 28.5959 151.19 28.4282 150.457 28.0929C149.724 27.7513 149.143 27.2576 148.715 26.6117C148.293 25.9659 148.082 25.1741 148.082 24.2363C148.082 23.429 148.237 22.7645 148.547 22.2429C148.858 21.7212 149.277 21.3082 149.805 21.0039C150.333 20.6996 150.923 20.4699 151.575 20.3146C152.227 20.1594 152.891 20.0414 153.568 19.9606C154.425 19.8613 155.121 19.7805 155.655 19.7184C156.189 19.6501 156.577 19.5414 156.819 19.3924C157.061 19.2433 157.183 19.0012 157.183 18.6658V18.6006C157.183 17.7871 156.953 17.1567 156.493 16.7096C156.04 16.2625 155.363 16.0389 154.462 16.0389C153.525 16.0389 152.786 16.2469 152.245 16.663C151.711 17.0729 151.342 17.5293 151.137 18.0324L148.519 17.4362C148.83 16.5668 149.283 15.865 149.879 15.3309C150.482 14.7906 151.174 14.3994 151.957 14.1572C152.739 13.9088 153.562 13.7846 154.425 13.7846C154.997 13.7846 155.602 13.8529 156.242 13.9895C156.888 14.1199 157.49 14.3621 158.049 14.7161C158.614 15.0701 159.077 15.5762 159.437 16.2345C159.797 16.8866 159.977 17.7343 159.977 18.7776V28.2792H157.257V26.323H157.145C156.965 26.6831 156.695 27.0371 156.335 27.3849C155.975 27.7327 155.512 28.0214 154.947 28.2512C154.382 28.481 153.705 28.5959 152.916 28.5959ZM153.522 26.3602C154.292 26.3602 154.95 26.2081 155.496 25.9038C156.049 25.5995 156.468 25.202 156.754 24.7114C157.046 24.2146 157.192 23.6836 157.192 23.1185V21.2741C157.092 21.3734 156.9 21.4666 156.614 21.5535C156.335 21.6343 156.015 21.7057 155.655 21.7678C155.295 21.8237 154.944 21.8765 154.602 21.9261C154.261 21.9696 153.975 22.0069 153.745 22.0379C153.205 22.1062 152.711 22.2211 152.264 22.3826C151.823 22.5441 151.469 22.7769 151.202 23.0812C150.941 23.3793 150.811 23.7768 150.811 24.2736C150.811 24.9629 151.066 25.4846 151.575 25.8386C152.084 26.1863 152.733 26.3602 153.522 26.3602Z" fill="white"/>
<path d="M163.687 28.2792V13.9709H166.379V16.2438H166.528C166.789 15.4738 167.248 14.8683 167.907 14.4274C168.571 13.9802 169.323 13.7567 170.161 13.7567C170.335 13.7567 170.54 13.7629 170.776 13.7753C171.018 13.7877 171.207 13.8032 171.344 13.8219V16.486C171.232 16.455 171.034 16.4208 170.748 16.3836C170.462 16.3401 170.177 16.3184 169.891 16.3184C169.233 16.3184 168.646 16.4581 168.13 16.7375C167.621 17.0108 167.217 17.3927 166.919 17.8833C166.621 18.3677 166.472 18.9204 166.472 19.5414V28.2792H163.687Z" fill="white"/>
<path d="M79.8611 59.4294V40.3518H82.7395V49.4621H82.9724L90.9742 40.3518H94.5979L86.9035 48.9404L94.6258 59.4294H91.1606L84.9938 50.906L82.7395 53.4956V59.4294H79.8611Z" fill="white"/>
<path d="M102.034 59.7182C100.692 59.7182 99.5218 59.4108 98.5219 58.796C97.5221 58.1812 96.7458 57.3211 96.1931 56.2157C95.6404 55.1102 95.3641 53.8185 95.3641 52.3405C95.3641 50.8563 95.6404 49.5583 96.1931 48.4467C96.7458 47.3351 97.5221 46.4719 98.5219 45.8571C99.5218 45.2423 100.692 44.9349 102.034 44.9349C103.375 44.9349 104.546 45.2423 105.546 45.8571C106.545 46.4719 107.322 47.3351 107.874 48.4467C108.427 49.5583 108.704 50.8563 108.704 52.3405C108.704 53.8185 108.427 55.1102 107.874 56.2157C107.322 57.3211 106.545 58.1812 105.546 58.796C104.546 59.4108 103.375 59.7182 102.034 59.7182ZM102.043 57.3801C102.913 57.3801 103.633 57.1503 104.204 56.6907C104.776 56.2312 105.198 55.6195 105.471 54.8556C105.751 54.0918 105.89 53.2503 105.89 52.3312C105.89 51.4183 105.751 50.5799 105.471 49.8161C105.198 49.046 104.776 48.4281 104.204 47.9623C103.633 47.4966 102.913 47.2637 102.043 47.2637C101.167 47.2637 100.441 47.4966 99.8633 47.9623C99.292 48.4281 98.8666 49.046 98.5871 49.8161C98.3139 50.5799 98.1773 51.4183 98.1773 52.3312C98.1773 53.2503 98.3139 54.0918 98.5871 54.8556C98.8666 55.6195 99.292 56.2312 99.8633 56.6907C100.441 57.1503 101.167 57.3801 102.043 57.3801ZM99.2951 42.8762C98.8604 42.8762 98.4785 42.7147 98.1493 42.3918C97.8202 42.0627 97.6556 41.6838 97.6556 41.2553C97.6556 40.7896 97.8202 40.4014 98.1493 40.0909C98.4785 39.7804 98.8604 39.6252 99.2951 39.6252C99.7609 39.6252 100.149 39.7804 100.46 40.0909C100.776 40.4014 100.935 40.7896 100.935 41.2553C100.935 41.6838 100.776 42.0627 100.46 42.3918C100.149 42.7147 99.7609 42.8762 99.2951 42.8762ZM104.772 42.8762C104.338 42.8762 103.956 42.7147 103.627 42.3918C103.298 42.0627 103.133 41.6838 103.133 41.2553C103.133 40.7896 103.298 40.4014 103.627 40.0909C103.956 39.7804 104.338 39.6252 104.772 39.6252C105.238 39.6252 105.626 39.7804 105.937 40.0909C106.254 40.4014 106.412 40.7896 106.412 41.2553C106.412 41.6838 106.254 42.0627 105.937 42.3918C105.626 42.7147 105.238 42.8762 104.772 42.8762Z" fill="white"/>
<path d="M111.514 59.4294V57.5198L119.265 47.6736V47.5431H111.766V45.1212H122.739V47.1519L115.287 56.877V57.0075H123V59.4294H111.514Z" fill="white"/>
<path d="M129.071 40.3518V59.4294H126.286V40.3518H129.071Z" fill="white"/>
<path d="M138.845 59.7182C137.504 59.7182 136.333 59.4108 135.334 58.796C134.334 58.1812 133.557 57.3211 133.005 56.2157C132.452 55.1102 132.176 53.8185 132.176 52.3405C132.176 50.8563 132.452 49.5583 133.005 48.4467C133.557 47.3351 134.334 46.4719 135.334 45.8571C136.333 45.2423 137.504 44.9349 138.845 44.9349C140.187 44.9349 141.357 45.2423 142.357 45.8571C143.357 46.4719 144.133 47.3351 144.686 48.4467C145.239 49.5583 145.515 50.8563 145.515 52.3405C145.515 53.8185 145.239 55.1102 144.686 56.2157C144.133 57.3211 143.357 58.1812 142.357 58.796C141.357 59.4108 140.187 59.7182 138.845 59.7182ZM138.855 57.3801C139.724 57.3801 140.445 57.1503 141.016 56.6907C141.587 56.2312 142.01 55.6195 142.283 54.8556C142.562 54.0918 142.702 53.2503 142.702 52.3312C142.702 51.4183 142.562 50.5799 142.283 49.8161C142.01 49.046 141.587 48.4281 141.016 47.9623C140.445 47.4966 139.724 47.2637 138.855 47.2637C137.979 47.2637 137.253 47.4966 136.675 47.9623C136.104 48.4281 135.678 49.046 135.399 49.8161C135.126 50.5799 134.989 51.4183 134.989 52.3312C134.989 53.2503 135.126 54.0918 135.399 54.8556C135.678 55.6195 136.104 56.2312 136.675 56.6907C137.253 57.1503 137.979 57.3801 138.855 57.3801ZM136.107 42.8762C135.672 42.8762 135.29 42.7147 134.961 42.3918C134.632 42.0627 134.467 41.6838 134.467 41.2553C134.467 40.7896 134.632 40.4014 134.961 40.0909C135.29 39.7804 135.672 39.6252 136.107 39.6252C136.572 39.6252 136.961 39.7804 137.271 40.0909C137.588 40.4014 137.746 40.7896 137.746 41.2553C137.746 41.6838 137.588 42.0627 137.271 42.3918C136.961 42.7147 136.572 42.8762 136.107 42.8762ZM141.584 42.8762C141.149 42.8762 140.767 42.7147 140.438 42.3918C140.109 42.0627 139.945 41.6838 139.945 41.2553C139.945 40.7896 140.109 40.4014 140.438 40.0909C140.767 39.7804 141.149 39.6252 141.584 39.6252C142.05 39.6252 142.438 39.7804 142.749 40.0909C143.065 40.4014 143.224 40.7896 143.224 41.2553C143.224 41.6838 143.065 42.0627 142.749 42.3918C142.438 42.7147 142.05 42.8762 141.584 42.8762Z" fill="white"/>
<path d="M151.409 50.9339V59.4294H148.624V45.1212H151.298V47.45H151.475C151.804 46.6923 152.319 46.0838 153.021 45.6242C153.729 45.1646 154.62 44.9349 155.694 44.9349C156.669 44.9349 157.523 45.1398 158.256 45.5497C158.989 45.9533 159.557 46.5557 159.961 47.3568C160.364 48.158 160.566 49.1485 160.566 50.3284V59.4294H157.781V50.6638C157.781 49.6267 157.511 48.8162 156.971 48.2325C156.43 47.6425 155.688 47.3475 154.744 47.3475C154.098 47.3475 153.524 47.4873 153.021 47.7667C152.524 48.0462 152.13 48.456 151.838 48.9963C151.552 49.5304 151.409 50.1763 151.409 50.9339Z" fill="white"/>
<path d="M165.55 64.795C165.134 64.795 164.755 64.7609 164.414 64.6926C164.072 64.6305 163.817 64.5621 163.65 64.4876L164.32 62.2054C164.83 62.342 165.283 62.401 165.68 62.3824C166.078 62.3637 166.429 62.2147 166.733 61.9352C167.044 61.6558 167.317 61.1993 167.553 60.5659L167.897 59.6157L162.662 45.1212H165.643L169.267 56.225H169.416L173.039 45.1212H176.03L170.133 61.3391C169.86 62.0843 169.512 62.7146 169.09 63.2301C168.667 63.7517 168.164 64.143 167.581 64.4038C166.997 64.6646 166.32 64.795 165.55 64.795Z" fill="white"/>
</svg>
